<svg xmlns="http://www.w3.org/2000/svg" width="24" height="24" viewBox="0 0 24 24">
              <path d="M8,12 C5.790861,12 4,10.209139 4,8 C4,5.790861 5.790861,4 8,4 C10.209139,4 12,5.790861 12,8 C12,10.209139 10.209139,12 8,12 Z M8,10.6666667 C9.47275933,10.6666667 10.6666667,9.47275933 10.6666667,8 C10.6666667,6.52724067 9.47275933,5.33333333 8,5.33333333 C6.52724067,5.33333333 5.33333333,6.52724067 5.33333333,8 C5.33333333,9.47275933 6.52724067,10.6666667 8,10.6666667 Z M7.33333333,0.666666667 C7.33333333,0.298476833 7.6318102,0 8,0 C8.3681898,0 8.66666667,0.298476833 8.66666667,0.666666667 L8.66666667,2 C8.66666667,2.36818983 8.3681898,2.66666667 8,2.66666667 C7.6318102,2.66666667 7.33333333,2.36818983 7.33333333,2 L7.33333333,0.666666667 Z M7.33333333,14 C7.33333333,13.6318102 7.6318102,13.3333333 8,13.3333333 C8.3681898,13.3333333 8.66666667,13.6318102 8.66666667,14 L8.66666667,15.3333333 C8.66666667,15.7015231 8.3681898,16 8,16 C7.6318102,16 7.33333333,15.7015231 7.33333333,15.3333333 L7.33333333,14 Z M2.34192881,3.28473785 C2.08157929,3.02438833 2.08157929,2.60227834 2.34192881,2.34192881 C2.60227834,2.08157929 3.02438833,2.08157929 3.28473785,2.34192881 L4.23140452,3.28859548 C4.49175405,3.54894501 4.49175405,3.97105499 4.23140452,4.23140452 C3.97105499,4.49175405 3.54894501,4.49175405 3.28859548,4.23140452 L2.34192881,3.28473785 Z M11.7685955,12.7114045 C11.5082459,12.451055 11.5082459,12.028945 11.7685955,11.7685955 C12.028945,11.5082459 12.451055,11.5082459 12.7114045,11.7685955 L13.6580712,12.7152621 C13.9184207,12.9756117 13.9184207,13.3977217 13.6580712,13.6580712 C13.3977217,13.9184207 12.9756117,13.9184207 12.7152621,13.6580712 L11.7685955,12.7114045 Z M0.666666667,8.66666667 C0.298476833,8.66666667 0,8.3681898 0,8 C0,7.6318102 0.298476833,7.33333333 0.666666667,7.33333333 L2,7.33333333 C2.36818983,7.33333333 2.66666667,7.6318102 2.66666667,8 C2.66666667,8.3681898 2.36818983,8.66666667 2,8.66666667 L0.666666667,8.66666667 Z M14,8.66666667 C13.6318102,8.66666667 13.3333333,8.3681898 13.3333333,8 C13.3333333,7.6318102 13.6318102,7.33333333 14,7.33333333 L15.3333333,7.33333333 C15.7015231,7.33333333 16,7.6318102 16,8 C16,8.3681898 15.7015231,8.66666667 15.3333333,8.66666667 L14,8.66666667 Z M3.28473785,13.6580712 C3.02438833,13.9184207 2.60227834,13.9184207 2.34192881,13.6580712 C2.08157929,13.3977217 2.08157929,12.9756117 2.34192881,12.7152621 L3.28859548,11.7685955 C3.54894501,11.5082459 3.97105499,11.5082459 4.23140452,11.7685955 C4.49175405,12.028945 4.49175405,12.451055 4.23140452,12.7114045 L3.28473785,13.6580712 Z M12.7114045,4.23140452 C12.451055,4.49175405 12.028945,4.49175405 11.7685955,4.23140452 C11.5082459,3.97105499 11.5082459,3.54894501 11.7685955,3.28859548 L12.7152621,2.34192881 C12.9756117,2.08157929 13.3977217,2.08157929 13.6580712,2.34192881 C13.9184207,2.60227834 13.9184207,3.02438833 13.6580712,3.28473785 L12.7114045,4.23140452 Z" />
</svg>
